# xmcd
#
# Track frame offsets: 
#        150
#        9221
#        20170
#        28897
#        44059
#        53481
#        65250
#        76508
#        90580
#        101891
#        114020
#        121792
#        132298
#        142552
#        156938
#        167427
#        180747
#        190789
#
# Disc length: 2669 seconds
#
# Revision: 0
# Processed by: cddbd v1.5.2PL0 Copyright (c) Steve Scherf et al.
# Submitted via: ExactAudioCopy v1.0b1
#
DISCID=d50a6b12
DTITLE=Various Artist - The Hank Williams Songbook
DYEAR=2003
DGENRE=Country
TTITLE0=Jambalaya (On the Bayou) - Jerry Lee Lewis
TTITLE1=(I Heard That) Lonesome Whistle - Johnny Cash
TTITLE2=Why Don't You Love Me - Rusty and Doug Kershaw
TTITLE3=Ramblin' Man - Del Shannon
TTITLE4=Long Gone Lonesome Blues - Jerry Lee Lewis
TTITLE5=I Can't Help It (If I'm Still in Love with You) - Sue Thompson
TTITLE6=Move it on Over - Don Gibson
TTITLE7=Cold Cold Heart - Jerry Lee Lewis
TTITLE8=Singing Waterfall - Wilma Lee and Stoney Cooper
TTITLE9=Your Cheatin' Heart - Roy Acuff
TTITLE10=Hey Good Lookin' - Johnny Cash
TTITLE11=Honky Tonk Blues - Del Shannon
TTITLE12=Kaw-Liga - Rusty and Doug Kershaw
TTITLE13=I'm So Lonesome I Could Cry - B.J. Thomas
TTITLE14=My Bucket's Got a Hole in it - Sonny Burgess
TTITLE15=You Win Again - Jerry Lee Lewis
TTITLE16=I Could Never Be Ashamed of You - Johnny Cash
TTITLE17=I Saw the Light - Roy Acuff
EXTD=
EXTT0=
EXTT1=
EXTT2=
EXTT3=
EXTT4=
EXTT5=
EXTT6=
EXTT7=
EXTT8=
EXTT9=
EXTT10=
EXTT11=
EXTT12=
EXTT13=
EXTT14=
EXTT15=
EXTT16=
EXTT17=
PLAYORDER=
